<?xml version="1.0" standalone="no"?>
<!DOCTYPE svg PUBLIC "-//W3C//DTD SVG 20010904//EN"
 "http://www.w3.org/TR/2001/REC-SVG-20010904/DTD/svg10.dtd">
<svg version="1.0" xmlns="http://www.w3.org/2000/svg"
 width="1000.000000pt" height="1000.000000pt" viewBox="0 0 1000.000000 1000.000000"
 preserveAspectRatio="xMidYMid meet">

<g transform="translate(0.000000,1000.000000) scale(0.100000,-0.100000)"
fill="#000000" stroke="none">
<path d="M931 8508 c-4 -13 -11 -67 -14 -121 -3 -55 -7 -101 -10 -103 -2 -2
-80 -11 -172 -20 -197 -19 -215 -24 -215 -59 0 -42 33 -50 152 -37 57 6 131
14 166 18 l63 6 -4 -123 c-4 -146 -24 -253 -73 -404 -41 -122 -79 -208 -124
-275 -16 -25 -33 -52 -37 -60 -14 -30 -88 -111 -119 -130 -35 -22 -45 -45 -33
-76 14 -39 36 -35 99 19 42 35 85 88 136 164 66 102 85 136 116 213 9 24 11
21 43 -46 79 -172 192 -274 303 -274 38 0 180 32 206 47 6 3 21 15 33 26 l22
20 51 -33 c98 -63 193 -48 278 44 l40 43 34 -51 c50 -75 115 -106 220 -106 48
0 90 5 106 14 37 19 123 111 152 164 13 23 27 42 31 42 7 0 70 -82 102 -133
23 -35 74 -67 109 -67 38 0 136 54 176 96 27 28 31 38 22 54 -15 28 -45 25
-88 -9 -40 -31 -105 -56 -126 -48 -24 9 -109 141 -123 192 -9 31 -15 105 -17
193 -1 85 -6 146 -13 153 -6 6 -21 9 -34 7 -25 -3 -33 -24 -44 -102 l-7 -49
-17 29 c-26 43 -117 101 -187 118 -77 20 -171 20 -204 1 -14 -8 -35 -18 -46
-24 -12 -5 -35 -26 -52 -46 -30 -37 -30 -37 -34 -183 -3 -144 -4 -148 -33
-192 -58 -86 -133 -112 -201 -69 -35 21 -41 33 -24 44 6 4 24 34 41 67 24 48
32 77 36 147 6 94 -5 138 -62 250 -22 44 -31 52 -81 71 -74 27 -99 21 -162
-41 -41 -40 -55 -63 -76 -127 -28 -83 -33 -149 -14 -203 13 -39 133 -179 153
-179 24 0 26 -19 5 -30 -34 -18 -127 -40 -171 -40 -46 0 -111 30 -134 62 -102
146 -115 180 -114 295 0 112 11 219 33 348 9 50 16 115 16 146 l0 56 68 6
c108 11 431 8 452 -3 29 -16 65 22 49 51 -24 46 -66 52 -317 47 l-233 -5 7 53
c3 28 1 67 -4 85 -6 19 -14 48 -19 64 -7 24 -14 31 -41 33 -26 3 -34 -1 -41
-20z m517 -679 c26 -9 35 -22 56 -77 41 -105 31 -251 -20 -311 l-24 -29 -37
19 c-20 10 -56 43 -80 71 -39 49 -42 57 -43 115 0 78 30 163 71 198 35 29 35
29 77 14z m679 -73 c69 -18 107 -47 140 -104 14 -26 33 -55 41 -64 28 -33 8
-121 -45 -200 -64 -96 -84 -108 -175 -108 -78 1 -105 11 -136 50 -49 63 -55
89 -60 242 l-4 146 38 25 c46 30 119 35 201 13z"/>
<path d="M3434 8291 c-30 -13 -70 -64 -85 -108 -17 -50 -17 -182 0 -433 l14
-204 -50 -46 c-61 -56 -186 -110 -256 -110 -56 0 -167 48 -191 82 -25 35 -22
178 4 211 29 37 98 67 154 67 39 0 55 -6 83 -30 27 -24 38 -28 53 -20 50 27
30 82 -45 119 -87 44 -208 18 -288 -62 -52 -52 -67 -92 -67 -182 0 -131 30
-176 158 -236 110 -52 159 -52 285 -2 51 21 110 53 132 72 l40 35 8 -42 c13
-66 63 -79 91 -23 7 14 24 69 36 120 20 80 29 101 62 138 49 52 117 93 156 93
46 0 63 -28 69 -117 5 -86 42 -214 76 -265 31 -45 83 -78 123 -78 40 0 102 50
144 117 l27 42 11 -24 c16 -36 105 -77 178 -83 61 -5 62 -4 108 38 58 54 76
109 76 237 0 108 12 140 63 172 48 29 92 27 122 -5 37 -39 53 -106 63 -253 7
-111 12 -136 27 -147 26 -20 50 -2 78 58 27 56 47 147 47 209 0 28 8 47 29 71
15 18 33 43 40 55 25 48 168 55 193 10 8 -14 13 -72 13 -157 1 -159 12 -199
69 -258 82 -86 136 -94 215 -32 l51 41 30 -35 c40 -45 128 -86 185 -86 64 0
162 42 212 92 l43 42 0 -37 c0 -28 -5 -39 -22 -48 -13 -6 -34 -22 -48 -35 -14
-12 -56 -39 -95 -59 -70 -37 -178 -109 -224 -149 -26 -23 -67 -83 -93 -136
-32 -66 -21 -164 28 -240 72 -110 96 -130 156 -130 60 1 156 27 188 51 61 46
99 86 103 110 3 13 19 98 36 189 18 91 37 206 42 255 6 50 12 99 15 110 6 33
92 81 209 115 106 32 201 76 225 105 16 19 -4 55 -31 55 -11 0 -46 -13 -77
-30 -31 -16 -95 -39 -142 -51 -47 -11 -106 -31 -131 -44 l-46 -23 -6 166 c-4
91 -7 199 -7 239 0 86 -11 113 -46 113 -28 0 -44 -30 -44 -83 l0 -31 -42 41
c-43 42 -128 83 -172 83 -12 0 -46 -7 -75 -16 -57 -17 -137 -88 -148 -132 -3
-13 -15 -27 -27 -32 -31 -11 -46 -70 -46 -174 0 -96 -15 -144 -51 -170 -35
-24 -62 -20 -97 17 -44 45 -54 86 -47 184 8 92 -7 181 -36 229 -22 36 -66 60
-126 70 -51 8 -148 -19 -174 -49 -49 -55 -87 -104 -98 -125 -11 -21 -14 -19
-46 46 -37 74 -77 110 -130 119 -55 9 -101 -5 -154 -47 -74 -59 -83 -83 -90
-237 -6 -121 -8 -133 -30 -157 -17 -18 -35 -26 -58 -26 -45 0 -106 26 -122 53
-24 37 -40 136 -41 243 0 111 -10 138 -50 132 -35 -5 -48 -59 -49 -204 -1 -81
-6 -135 -16 -166 -18 -50 -68 -108 -95 -108 -45 0 -89 99 -101 226 -10 111
-34 172 -78 203 -59 42 -110 38 -213 -17 -3 -2 0 21 8 50 9 35 14 104 13 198
0 161 -14 218 -60 252 -30 22 -94 32 -125 19z m87 -108 c7 -17 9 -93 7 -198
-4 -165 -5 -172 -35 -236 -17 -37 -35 -69 -40 -72 -12 -7 -28 216 -27 380 0
95 3 115 19 133 27 30 63 26 76 -7z m2341 -382 c46 -20 92 -64 126 -122 17
-28 22 -52 21 -100 0 -84 -14 -116 -74 -171 -114 -104 -232 -104 -312 0 l-32
43 6 97 c7 105 36 183 86 230 46 43 113 52 179 23z m134 -717 c-9 -60 -23
-133 -31 -164 -7 -30 -19 -90 -26 -132 -12 -75 -14 -78 -56 -109 -30 -21 -65
-34 -108 -42 -62 -11 -66 -10 -90 13 -118 111 -94 268 56 375 73 52 144 96
194 119 17 8 39 24 49 35 11 12 21 19 23 17 3 -2 -3 -53 -11 -112z"/>
<path d="M4132 8139 c-34 -13 -26 -54 15 -80 l32 -20 20 20 c24 24 26 41 9 63
-17 22 -48 29 -76 17z"/>
<path d="M7190 7424 c-6 -14 -10 -95 -10 -180 l0 -154 -219 0 c-121 0 -231 -4
-245 -10 -20 -7 -26 -17 -26 -39 0 -39 13 -46 87 -43 l62 3 -1 -32 c-1 -20 6
-37 16 -45 11 -7 27 -50 41 -107 14 -54 37 -116 54 -144 17 -28 31 -55 31 -61
0 -5 30 -47 66 -92 36 -45 63 -87 60 -95 -7 -19 -107 -91 -169 -122 -109 -55
-147 -106 -98 -133 23 -12 46 -5 84 27 16 13 34 23 41 23 23 0 161 96 189 131
l26 33 38 -32 c51 -43 111 -73 218 -110 124 -42 148 -44 165 -12 15 29 -3 57
-42 65 -48 10 -190 60 -224 79 -16 8 -44 28 -63 44 l-34 29 36 54 c19 30 40
72 47 94 12 41 22 62 72 152 32 57 68 176 68 223 l0 30 120 0 c106 0 122 2
140 20 23 23 17 48 -17 61 -13 5 -114 9 -224 9 l-199 0 -1 138 c-2 162 -3 171
-18 200 -17 32 -59 30 -71 -4z m179 -471 c-13 -80 -35 -141 -77 -211 -22 -37
-45 -87 -52 -112 -12 -46 -54 -120 -68 -120 -16 0 -109 126 -144 195 -37 72
-83 251 -72 280 5 13 36 15 214 15 l207 0 -8 -47z"/>
<path d="M9220 7374 c-14 -3 -40 -7 -58 -10 -18 -3 -38 -15 -47 -27 -8 -13
-32 -92 -54 -177 -41 -161 -74 -259 -134 -395 -20 -44 -43 -111 -53 -150 -9
-38 -30 -103 -46 -142 -30 -77 -30 -116 2 -133 26 -14 46 7 68 70 41 114 51
147 69 215 17 65 21 70 53 80 20 5 134 9 265 9 l230 -1 32 -64 c17 -35 48
-107 69 -159 47 -120 66 -138 103 -101 19 19 19 20 -8 93 -28 72 -75 178 -131
293 -62 127 -113 243 -137 305 -25 69 -63 212 -63 239 0 33 -24 49 -80 54 -30
2 -66 3 -80 1z m81 -114 c41 -143 77 -247 104 -305 30 -61 65 -143 65 -150 0
-3 -424 7 -427 9 -1 1 12 42 31 92 29 78 64 200 96 331 9 37 14 42 43 46 62 8
80 3 88 -23z"/>
<path d="M8459 6903 c-5 -14 -7 -39 -4 -55 7 -28 36 -53 49 -41 7 8 50 -30 78
-70 l19 -27 -26 10 c-15 6 -147 10 -316 10 -159 0 -289 3 -289 6 0 3 13 23 29
43 45 57 53 78 41 101 -18 33 -56 25 -85 -17 -14 -21 -37 -56 -51 -77 -45 -67
-74 -128 -74 -155 0 -53 262 -271 301 -251 43 24 30 67 -34 107 -54 34 -164
124 -171 141 -4 9 63 12 319 12 l324 0 -34 -72 c-36 -74 -37 -102 -8 -125 20
-16 49 -1 58 29 11 38 74 166 101 205 13 20 24 39 24 44 0 4 -34 43 -76 86
-42 43 -83 88 -91 101 -22 33 -70 30 -84 -5z"/>
<path d="M4334 6695 c-4 -9 -5 -107 -2 -219 l3 -203 -46 24 c-67 35 -114 39
-180 14 -114 -43 -199 -167 -184 -266 10 -69 -12 -142 -57 -191 -22 -24 -48
-44 -58 -44 -30 0 -126 100 -139 145 -14 51 -34 301 -27 338 9 44 -9 69 -47
65 -28 -3 -32 -8 -40 -43 -5 -22 -6 -64 -3 -93 l5 -53 -29 38 c-70 92 -82 103
-136 119 -50 14 -58 14 -107 -2 -61 -19 -81 -35 -97 -74 -7 -17 -21 -30 -33
-32 -17 -2 -25 -16 -39 -68 -10 -36 -21 -94 -24 -130 -11 -113 -80 -196 -156
-188 -31 3 -35 7 -56 68 -20 58 -22 76 -16 175 5 91 3 117 -11 153 -31 76
-139 139 -220 128 -74 -10 -141 -35 -180 -69 l-38 -33 -44 48 c-58 61 -96 74
-176 58 -90 -17 -160 -52 -221 -110 -48 -45 -55 -49 -60 -32 -11 35 -111 120
-148 127 -44 8 -151 -18 -186 -45 -37 -29 -50 -51 -88 -143 -33 -79 -34 -87
-34 -219 0 -75 4 -148 9 -161 13 -34 38 -40 61 -17 18 18 20 34 20 170 l0 151
35 73 c37 79 53 91 132 101 44 6 51 4 84 -27 60 -56 80 -126 88 -311 5 -139 9
-161 25 -173 22 -16 52 -4 60 23 22 79 28 149 21 260 l-7 123 29 26 c55 52
114 82 185 95 l71 13 42 -46 c51 -54 62 -88 75 -233 14 -154 18 -173 40 -185
15 -8 24 -6 40 10 19 19 20 33 20 199 0 179 0 180 24 199 14 10 52 25 86 32
72 15 123 4 160 -35 22 -23 23 -28 16 -134 -6 -101 -5 -117 20 -198 29 -97 43
-119 91 -139 72 -31 140 -8 212 71 40 43 45 46 54 29 18 -32 77 -84 116 -100
25 -11 61 -15 121 -12 80 3 88 5 128 38 24 19 52 50 64 69 l21 34 30 -33 c17
-19 55 -55 85 -82 47 -41 61 -48 96 -48 38 0 47 6 106 68 l65 67 30 -29 c68
-65 169 -91 239 -62 45 19 113 81 135 125 l19 35 21 -42 c49 -96 135 -162 209
-162 42 0 179 61 239 106 38 29 38 29 73 4 51 -36 178 -64 351 -76 l95 -7 22
28 c17 21 19 31 11 46 -8 16 -21 19 -79 19 -133 0 -337 37 -360 65 -9 11 -2
34 29 100 48 100 50 132 16 230 -40 115 -108 156 -200 120 -56 -21 -80 -51
-105 -132 -24 -77 -25 -109 -5 -143 8 -14 18 -32 22 -40 4 -8 24 -33 46 -55
64 -66 64 -71 10 -105 -55 -35 -144 -70 -178 -70 -33 0 -91 53 -121 111 -14
29 -30 88 -39 149 -8 56 -20 120 -26 143 -6 23 -13 137 -16 252 -3 116 -9 218
-15 228 -11 22 -66 23 -74 2z m610 -459 c23 -48 33 -129 18 -159 -6 -12 -18
-39 -27 -59 -10 -21 -20 -38 -24 -38 -13 0 -101 113 -107 137 -4 14 -1 49 5
79 14 61 40 86 86 82 24 -2 34 -11 49 -42z m-1557 4 c13 0 76 -79 125 -154 20
-30 27 -54 27 -94 1 -63 -17 -102 -64 -138 -32 -24 -41 -26 -114 -23 -89 5
-104 13 -148 88 -33 57 -35 140 -3 183 11 15 28 48 38 74 14 37 24 49 52 59
19 7 44 11 55 9 11 -2 25 -4 32 -4z m888 -30 c89 -55 101 -211 25 -307 -52
-66 -124 -80 -197 -38 -62 37 -81 84 -84 207 -1 48 3 64 24 92 57 75 154 94
232 46z"/>
<path d="M3630 5520 c-37 -52 -130 -237 -130 -259 0 -24 31 -44 55 -35 9 4 31
36 50 73 l34 66 1 -317 c0 -304 -1 -318 -19 -328 -11 -5 -33 -10 -50 -10 -16
0 -68 -14 -116 -31 -48 -16 -88 -29 -90 -27 -1 2 -8 38 -14 81 -9 54 -10 135
-5 270 7 211 3 237 -42 237 -34 0 -44 -32 -44 -143 0 -204 -43 -327 -114 -327
-53 0 -111 51 -156 138 -21 41 -22 51 -16 172 8 143 2 170 -40 170 -30 0 -44
-31 -44 -98 0 -109 -26 -143 -155 -209 l-76 -38 -107 111 c-59 61 -131 139
-161 173 -44 51 -58 62 -80 59 -25 -3 -26 -5 -29 -77 -2 -41 5 -117 14 -170 9
-53 19 -134 21 -181 4 -83 4 -86 -27 -127 -40 -54 -73 -56 -149 -10 -45 27
-61 45 -99 112 l-45 80 2 103 c2 121 -11 155 -57 150 -23 -3 -29 -10 -38 -47
l-10 -44 -14 32 c-30 74 -135 129 -226 118 -69 -7 -94 -32 -142 -141 -37 -81
-45 -110 -49 -179 -7 -98 -19 -125 -86 -194 -49 -51 -54 -53 -104 -53 -43 0
-122 21 -142 37 -3 2 5 13 17 26 11 12 33 48 47 80 26 56 27 63 23 205 -3 129
-6 152 -26 190 -42 78 -99 78 -209 -2 -52 -38 -64 -54 -82 -101 -25 -67 -28
-182 -6 -245 8 -23 31 -69 52 -103 l36 -60 -26 -23 c-39 -33 -117 -55 -227
-63 -53 -4 -101 -11 -108 -15 -19 -11 -14 -54 7 -66 31 -16 149 -12 226 9 77
20 98 29 163 74 l44 29 66 -28 c44 -19 90 -30 134 -32 81 -5 112 11 187 95 38
43 51 52 58 40 4 -8 37 -40 73 -71 71 -62 109 -74 165 -56 47 15 165 131 195
190 l23 44 24 -49 c35 -69 46 -80 129 -125 113 -63 179 -50 243 46 58 88 62
142 27 338 -9 49 -14 91 -12 93 1 2 48 -46 104 -106 l102 -110 -22 -24 c-13
-14 -34 -55 -47 -92 -23 -67 -23 -67 -6 -126 10 -33 29 -71 42 -85 21 -23 29
-25 66 -19 102 17 197 85 197 141 0 30 -10 51 -58 122 -21 31 -32 56 -26 61 5
4 43 26 84 49 l76 40 28 -55 c86 -163 238 -242 317 -164 16 16 31 26 33 23 2
-4 7 -36 11 -72 l7 -65 -37 -20 c-21 -10 -52 -38 -71 -60 -18 -23 -79 -77
-135 -121 -198 -154 -254 -219 -285 -332 l-17 -60 29 -79 c50 -141 85 -176
247 -251 88 -42 149 -43 232 -4 100 48 118 76 144 231 21 121 22 142 12 264
-6 73 -12 191 -14 264 l-3 131 36 16 c76 33 123 45 195 49 51 3 82 10 94 21
15 14 49 16 233 16 l216 0 7 -42 c26 -170 91 -258 192 -258 30 0 50 7 71 25
34 29 74 121 92 212 l12 61 45 6 c25 3 92 6 148 6 l102 0 38 -35 c45 -40 114
-75 151 -75 30 0 131 60 163 96 l22 25 322 -2 c284 -1 609 4 1691 26 l279 6
-57 -64 c-61 -69 -72 -108 -36 -127 17 -9 33 2 125 96 58 59 105 112 105 119
0 19 -114 166 -150 193 -35 26 -52 31 -77 21 -37 -14 -28 -46 27 -96 28 -25
49 -47 47 -50 -2 -2 -242 -8 -533 -13 -645 -12 -628 -14 -786 95 -65 44 -79
50 -123 49 -86 -1 -172 -37 -249 -104 -78 -68 -106 -74 -160 -37 -19 12 -52
45 -73 72 -67 83 -77 90 -147 90 -97 0 -143 -27 -202 -118 l-49 -76 -135 2
-135 2 -16 70 c-28 121 -79 192 -150 210 -32 8 -94 -17 -132 -53 -43 -41 -105
-142 -119 -194 l-12 -48 -107 0 -107 0 -4 143 c-4 131 -6 146 -32 195 -29 57
-68 82 -123 82 -37 -1 -103 -32 -129 -61 -12 -13 -43 -89 -68 -169 -51 -157
-67 -180 -122 -180 l-34 0 0 286 0 286 33 -44 c36 -47 62 -54 83 -23 11 18 4
35 -63 153 -69 119 -79 132 -104 132 -19 0 -34 -9 -49 -30z m-2506 -412 c3
-13 6 -85 6 -160 0 -119 -3 -143 -20 -176 -12 -22 -29 -47 -39 -56 -18 -16
-20 -16 -39 11 -55 78 -64 111 -60 215 3 109 5 113 93 169 39 25 51 24 59 -3z
m650 -37 c13 -13 38 -49 55 -81 26 -49 31 -69 31 -129 0 -51 -6 -82 -21 -113
-22 -45 -102 -118 -129 -118 -22 0 -69 53 -120 134 -41 67 -42 71 -37 132 6
61 54 178 81 197 22 16 115 1 140 -22z m2360 -31 c12 -30 16 -74 16 -165 l0
-125 -120 0 c-112 0 -120 1 -112 18 6 9 19 49 30 87 57 193 77 224 138 225 28
0 34 -5 48 -40z m607 -110 c17 -23 63 -160 55 -166 0 -1 -56 -4 -123 -7 -122
-5 -123 -5 -123 17 0 29 68 135 105 164 38 30 60 28 86 -8z m733 -102 c20 -23
36 -45 36 -50 0 -4 -56 -8 -125 -8 l-125 0 22 34 c27 41 70 64 120 65 31 1 42
-5 72 -41z m631 -9 c37 -24 45 -33 34 -40 -8 -5 -77 -9 -153 -9 -137 0 -139 0
-121 20 21 23 115 56 171 59 11 0 42 -13 69 -30z m-3421 -88 c20 -32 36 -65
36 -73 0 -15 -61 -46 -100 -50 -22 -3 -26 2 -34 40 -7 34 -5 51 10 85 17 39
31 56 45 57 3 0 23 -27 43 -59z m2361 -71 c-7 -12 -42 -12 -70 0 -15 6 -8 9
28 9 30 1 46 -3 42 -9z m-611 -47 c-8 -55 -32 -132 -46 -150 -15 -19 -62 -16
-80 5 -26 29 -37 56 -51 126 l-14 66 99 0 99 0 -7 -47z m-1134 -225 c0 -62 5
-168 11 -235 11 -106 10 -136 -5 -230 -20 -123 -31 -145 -86 -173 -63 -32
-120 -27 -214 20 -111 56 -114 59 -147 140 -36 90 -36 106 0 183 38 79 56 99
166 183 50 37 127 103 172 146 45 43 86 78 92 78 7 0 11 -39 11 -112z"/>
<path d="M7672 4598 c-21 -21 -13 -50 28 -94 22 -24 40 -48 40 -52 0 -5 -18
-30 -41 -55 -43 -49 -48 -81 -17 -101 14 -9 26 -3 64 34 43 42 47 44 58 26 41
-69 72 -81 95 -38 8 15 3 31 -26 77 l-37 59 32 56 c26 48 29 60 19 75 -19 25
-58 15 -82 -21 l-21 -31 -29 39 c-30 39 -60 49 -83 26z"/>
<path d="M8740 4577 c-53 -27 -108 -154 -96 -226 6 -40 59 -92 114 -113 36
-14 40 -26 15 -57 l-18 -22 -37 31 c-51 42 -116 70 -142 61 -31 -12 -34 -64
-5 -85 12 -8 26 -13 30 -10 10 6 55 -18 86 -45 l23 -19 -30 -57 c-46 -88 -35
-164 32 -220 37 -31 60 -31 151 0 118 41 136 87 67 174 -22 28 -53 60 -70 73
-37 27 -38 46 -5 98 24 39 27 40 79 40 47 0 57 4 75 26 31 39 14 64 -45 64
-44 0 -44 0 -37 28 5 15 8 57 8 94 0 80 -19 112 -86 145 -64 31 -81 34 -109
20z m89 -103 c21 -15 23 -22 19 -90 -2 -40 -6 -76 -10 -80 -4 -3 -29 4 -55 17
l-48 24 2 53 c1 28 7 61 13 72 13 24 47 26 79 4z m51 -560 c0 -18 -108 -38
-125 -24 -20 17 -19 85 2 116 l16 25 54 -53 c29 -29 53 -57 53 -64z"/>
<path d="M9190 4474 c-6 -14 -10 -56 -10 -94 0 -67 -1 -68 -30 -79 -36 -12
-42 -54 -10 -71 17 -9 20 -21 20 -82 0 -111 23 -170 93 -234 58 -54 58 -54
124 -54 57 0 75 5 129 35 70 39 87 60 73 87 -13 25 -52 22 -105 -7 -63 -35
-128 -34 -171 3 -42 36 -53 69 -53 153 0 65 2 70 19 64 11 -3 45 -10 76 -15
59 -10 89 -3 98 22 10 30 -14 47 -93 64 l-80 17 0 89 c0 49 -5 98 -10 109 -16
29 -58 25 -70 -7z"/>
<path d="M8111 4119 c-28 -11 -28 -54 0 -69 24 -13 260 -19 301 -7 35 9 52 38
35 61 -10 13 -37 17 -163 19 -83 2 -161 0 -173 -4z"/>
<path d="M6884 4041 c-34 -16 -64 -36 -67 -45 -4 -9 -2 -37 3 -64 6 -26 13
-134 17 -241 5 -174 4 -194 -10 -203 -31 -17 -18 -48 44 -106 102 -95 121
-104 209 -98 107 7 200 41 271 98 45 36 63 76 54 118 -8 37 -130 179 -171 200
-16 8 -31 15 -33 17 -2 1 6 18 18 37 46 73 36 193 -19 239 -35 30 -170 77
-220 77 -19 0 -62 -13 -96 -29z m191 -81 c32 -11 64 -25 71 -31 21 -17 18
-105 -4 -137 -10 -15 -21 -34 -25 -44 -3 -9 -29 -23 -61 -32 -31 -9 -71 -25
-89 -36 l-33 -20 -13 147 c-11 137 -11 148 5 160 26 19 82 16 149 -7z m122
-337 c35 -20 123 -117 123 -137 0 -18 -49 -61 -96 -84 -46 -23 -147 -38 -196
-28 -18 4 -49 21 -69 39 -36 32 -37 33 -32 93 l5 62 69 4 c62 3 73 7 101 36
37 37 51 39 95 15z"/>
<path d="M7751 3925 c-18 -8 -61 -42 -95 -75 -50 -49 -67 -73 -85 -126 -26
-73 -25 -136 2 -194 21 -44 103 -138 131 -151 12 -5 39 -21 61 -34 31 -19 54
-25 102 -25 74 0 95 8 152 58 39 34 42 41 32 60 -16 29 -52 28 -89 -3 -64 -54
-205 -20 -271 64 -39 51 -51 75 -51 109 l0 30 43 -13 c23 -7 85 -16 138 -20
92 -6 98 -5 148 20 73 39 101 75 101 133 -1 57 -13 81 -65 125 -65 56 -179 74
-254 42z m205 -106 c38 -35 31 -85 -16 -111 -30 -16 -48 -18 -120 -13 -47 4
-102 11 -123 16 l-38 10 18 30 c10 17 38 46 63 66 44 34 47 35 118 30 59 -3
77 -9 98 -28z"/>
<path d="M5829 3838 c-13 -5 -19 -17 -19 -39 0 -25 5 -33 30 -42 26 -10 34
-22 51 -77 26 -79 36 -208 20 -238 -12 -23 -62 -30 -88 -14 -15 10 -33 57 -33
87 0 41 -46 132 -88 174 -66 67 -160 66 -213 -1 -37 -47 -42 -72 -29 -129 15
-62 40 -79 71 -48 17 17 20 29 15 62 -7 55 10 80 55 75 46 -4 87 -58 99 -130
19 -118 80 -188 163 -188 38 0 53 6 83 32 70 62 82 145 39 292 -14 47 -25 88
-25 90 0 2 15 7 34 10 45 9 71 38 57 64 -10 18 -23 21 -107 24 -52 2 -104 0
-115 -4z"/>
<path d="M6465 3690 c-55 -3 -106 -9 -112 -13 -20 -13 -15 -55 6 -67 30 -16
187 -13 220 5 34 17 44 38 28 58 -18 21 -32 23 -142 17z"/>
<path d="M6510 3530 c-69 -3 -131 -9 -137 -13 -20 -13 -15 -55 6 -67 25 -13
205 -13 253 0 44 13 63 40 45 62 -18 22 -30 23 -167 18z"/>
<path d="M5964 3290 c-47 -19 -114 -202 -114 -312 0 -116 82 -216 126 -153 12
19 11 25 -12 59 -25 37 -26 44 -21 125 8 115 22 157 68 203 33 33 37 42 29 58
-6 11 -15 20 -20 20 -4 0 -14 2 -22 4 -7 3 -22 1 -34 -4z"/>
<path d="M6367 3233 c-4 -3 -7 -17 -7 -30 0 -17 13 -31 50 -54 28 -17 71 -56
95 -86 39 -48 45 -61 45 -102 0 -38 -7 -57 -31 -90 -32 -45 -35 -77 -7 -95 20
-12 51 13 99 78 34 45 39 113 14 172 -21 52 -110 155 -161 187 -42 26 -83 35
-97 20z"/>
<path d="M6136 3158 c-8 -13 -17 -33 -20 -45 -6 -18 -15 -22 -59 -25 -49 -3
-52 -5 -55 -33 -4 -36 18 -55 65 -55 27 0 33 -4 33 -21 0 -46 26 -105 62 -141
35 -35 43 -38 93 -38 96 0 171 44 142 84 -14 18 -23 19 -113 10 -56 -6 -63 -4
-78 17 -9 13 -16 38 -16 56 0 29 3 33 25 33 14 0 34 9 45 20 26 26 13 56 -30
65 -34 7 -35 12 -15 39 21 27 3 56 -35 56 -20 0 -34 -7 -44 -22z"/>
</g>
</svg>
