<?xml version="1.0" standalone="no"?>
<!DOCTYPE svg PUBLIC "-//W3C//DTD SVG 20010904//EN"
 "http://www.w3.org/TR/2001/REC-SVG-20010904/DTD/svg10.dtd">
<svg version="1.0" xmlns="http://www.w3.org/2000/svg"
 width="3221.000000pt" height="2460.000000pt" viewBox="0 0 3221.000000 2460.000000"
 preserveAspectRatio="xMidYMid meet">

<g transform="translate(0.000000,2460.000000) scale(0.100000,-0.100000)"
fill="#000000" stroke="none">
<path d="M6339 24160 c-3248 -213 -5911 -389 -5918 -391 -6 -2 2711 -466 6038
-1030 l6049 -1027 3740 697 c2057 383 3739 697 3738 698 -1 1 -294 16 -651 33
-2354 111 -6039 305 -5859 309 177 3 3798 -139 5959 -234 435 -19 824 -35 866
-36 60 -1 392 58 1651 292 867 162 1575 295 1574 297 -8 7 -11117 782 -11196
781 -47 -1 -2743 -176 -5991 -389z m6918 -706 c-3 -3 -12 -4 -19 -1 -8 3 -5 6
6 6 11 1 17 -2 13 -5z m110 -1 c-20 -2 -52 -2 -70 0 -17 2 0 4 38 4 39 0 53
-2 32 -4z"/>
<path d="M5387 22803 c-5 -9 194 -5406 199 -5412 6 -7 376 -118 619 -186 1170
-327 2407 -553 3630 -664 966 -88 2040 -104 3015 -46 1584 96 3181 382 4669
836 232 71 493 154 579 185 l72 26 0 2585 0 2586 -52 -7 c-29 -4 -1297 -239
-2818 -522 -1521 -284 -2778 -516 -2795 -515 -16 0 -1528 254 -3360 564
l-3330 565 -212 6 c-116 4 -214 3 -216 -1z m6412 -2174 c36 -5 69 -13 74 -16
5 -3 -35 -49 -88 -103 l-97 -98 -79 29 c-116 42 -201 54 -285 40 -208 -37
-303 -158 -400 -511 -47 -172 -305 -1467 -311 -1566 -6 -79 -5 -81 23 -103 31
-24 72 -23 124 4 46 24 182 130 274 214 49 44 91 79 93 78 2 -2 -2 -30 -8 -63
-9 -51 -17 -66 -62 -112 -120 -124 -308 -248 -420 -278 -137 -36 -243 -7 -287
81 -44 90 -37 152 94 814 124 628 147 722 207 875 133 336 377 589 655 680
132 43 349 59 493 35z m-1967 -910 c29 -6 82 -20 116 -31 56 -18 63 -23 58
-42 -3 -11 -24 -94 -48 -183 l-42 -163 -48 0 -47 0 7 33 c4 17 7 62 7 99 0 74
-16 105 -74 145 -48 32 -161 49 -244 34 -134 -22 -240 -97 -331 -235 -104
-155 -157 -321 -178 -552 -24 -269 25 -434 149 -495 69 -34 203 -32 328 5 103
31 258 103 360 170 38 24 71 43 73 41 10 -10 -13 -99 -29 -114 -32 -30 -222
-139 -332 -191 -269 -127 -509 -145 -658 -49 -92 59 -162 154 -195 264 -22 73
-25 278 -5 370 46 219 148 407 320 587 160 168 332 272 512 307 64 13 239 13
301 0z m4351 -17 c37 -11 70 -22 73 -25 4 -4 -31 -207 -51 -294 -5 -20 -12
-23 -50 -23 l-45 0 0 55 c0 135 -80 200 -245 199 -101 -1 -155 -16 -202 -57
-46 -41 -63 -82 -63 -154 0 -96 53 -185 215 -363 180 -198 248 -316 247 -429
-1 -36 -8 -85 -16 -109 -48 -134 -215 -275 -401 -338 -98 -33 -267 -44 -378
-24 -78 13 -257 69 -257 79 1 3 40 48 89 100 l87 94 69 -42 c87 -52 158 -79
250 -93 122 -19 243 21 302 99 42 55 44 127 4 206 -17 34 -63 99 -103 143
-199 224 -229 259 -264 311 -60 90 -77 146 -72 234 6 107 40 173 138 270 82
82 189 144 300 174 77 21 281 14 373 -13z m1310 0 c37 -11 70 -22 73 -25 4 -4
-31 -207 -51 -294 -5 -20 -12 -23 -50 -23 l-45 0 0 55 c0 135 -80 200 -245
199 -101 -1 -155 -16 -202 -57 -46 -41 -63 -82 -63 -154 0 -96 53 -185 215
-363 180 -198 248 -316 247 -429 -1 -36 -8 -85 -16 -109 -48 -134 -215 -275
-401 -338 -98 -33 -267 -44 -378 -24 -78 13 -257 69 -257 79 1 3 40 48 89 100
l87 94 69 -42 c87 -52 158 -79 250 -93 122 -19 243 21 302 99 42 55 44 127 4
206 -17 34 -63 99 -103 143 -199 224 -229 259 -264 311 -60 90 -77 146 -72
234 6 107 40 173 138 270 82 82 189 144 300 174 77 21 281 14 373 -13z m-2790
1 c91 -5 107 -9 107 -23 0 -9 -21 -100 -46 -201 -45 -181 -194 -920 -213
-1052 -12 -84 -1 -120 40 -137 69 -29 174 29 342 190 89 85 119 109 114 90 -3
-14 -9 -44 -13 -67 -5 -35 -18 -53 -83 -116 -180 -175 -336 -257 -490 -257
-82 0 -141 27 -173 78 -21 33 -23 48 -22 152 1 95 9 154 48 339 52 255 49 234
37 229 -5 -1 -34 -52 -66 -113 -177 -340 -413 -589 -631 -666 -77 -28 -208
-23 -269 8 -115 60 -164 189 -152 403 11 196 84 402 207 586 213 316 459 496
753 549 79 14 343 19 510 8z"/>
<path d="M12032 19554 c-74 -19 -108 -39 -169 -97 -67 -63 -128 -161 -186
-297 -96 -227 -139 -406 -141 -585 -1 -137 21 -196 80 -221 77 -32 160 12 320
171 165 164 294 334 417 546 52 90 58 107 87 253 17 86 28 160 25 166 -9 15
-154 57 -239 69 -98 14 -128 13 -194 -5z"/>
</g>
</svg>